<svg xmlns="http://www.w3.org/2000/svg" xmlns:xlink="http://www.w3.org/1999/xlink" width="48" zoomAndPan="magnify" viewBox="0 0 36 36.000001" height="48" preserveAspectRatio="xMidYMid meet" version="1.2"><defs><clipPath id="5626f50300"><path d="M 5.027344 2.339844 L 31 2.339844 L 31 32.988281 L 5.027344 32.988281 Z M 5.027344 2.339844 "/></clipPath><clipPath id="b88a1fe1b1"><path d="M 6.699219 10.386719 L 23.484375 10.386719 L 23.484375 26.441406 L 6.699219 26.441406 Z M 6.699219 10.386719 "/></clipPath></defs><g id="3f3f4a4755"><g clip-rule="nonzero" clip-path="url(#5626f50300)"><path style=" stroke:none;fill-rule:nonzero;fill:#ffffff;fill-opacity:1;" d="M 30.722656 15.054688 C 29.492188 7.730469 23.15625 2.390625 15.65625 2.347656 C 13.996094 2.339844 12.34375 2.339844 10.433594 2.339844 C 9.238281 2.339844 7.945312 2.34375 6.496094 2.339844 L 5.050781 2.339844 L 5.050781 2.570312 C 5.058594 5.542969 5.058594 7.710938 5.058594 9.625 C 5.058594 10.457031 5.058594 11.242188 5.058594 12.027344 C 5.058594 12.136719 5.066406 12.242188 5.074219 12.339844 C 5.078125 12.386719 5.082031 12.429688 5.085938 12.476562 L 5.09375 12.589844 L 5.480469 12.847656 L 5.605469 12.640625 C 7.472656 9.523438 10.058594 7.648438 13.292969 7.070312 C 16.597656 6.476562 19.671875 7.351562 22.429688 9.671875 L 22.597656 9.8125 L 23.515625 8.789062 L 23.34375 8.636719 C 21.359375 6.859375 19.078125 5.832031 16.566406 5.574219 C 12.714844 5.179688 9.332031 6.378906 6.496094 9.140625 L 6.496094 3.734375 C 7.34375 3.734375 8.136719 3.734375 8.886719 3.734375 C 11.402344 3.730469 13.386719 3.726562 15.402344 3.746094 C 16.351562 3.757812 17.277344 3.839844 18.160156 3.996094 C 24.609375 5.121094 29.507812 10.933594 29.558594 17.507812 C 29.507812 24.089844 24.609375 29.898438 18.160156 31.027344 C 17.277344 31.179688 16.351562 31.265625 15.402344 31.273438 C 13.390625 31.296875 11.40625 31.292969 8.894531 31.289062 C 8.144531 31.289062 7.347656 31.289062 6.496094 31.285156 L 6.496094 25.882812 C 9.332031 28.644531 12.71875 29.84375 16.570312 29.449219 C 19.082031 29.191406 21.359375 28.164062 23.34375 26.386719 L 23.519531 26.234375 L 22.597656 25.210938 L 22.429688 25.351562 C 19.671875 27.671875 16.597656 28.542969 13.292969 27.953125 C 10.0625 27.375 7.476562 25.5 5.605469 22.382812 L 5.484375 22.175781 L 5.09375 22.433594 L 5.085938 22.550781 C 5.082031 22.59375 5.078125 22.636719 5.074219 22.683594 C 5.066406 22.78125 5.058594 22.886719 5.058594 22.996094 C 5.058594 23.78125 5.058594 24.566406 5.058594 25.398438 C 5.058594 27.3125 5.058594 29.480469 5.054688 32.453125 L 5.050781 32.683594 L 6.496094 32.683594 C 7.941406 32.679688 9.234375 32.679688 10.429688 32.683594 C 12.34375 32.683594 13.996094 32.683594 15.65625 32.675781 C 23.15625 32.636719 29.492188 27.292969 30.722656 19.96875 C 30.859375 19.160156 30.929688 18.332031 30.9375 17.507812 C 30.929688 16.6875 30.859375 15.863281 30.722656 15.054688 Z M 30.722656 15.054688 "/></g><path style=" stroke:none;fill-rule:evenodd;fill:#ffffff;fill-opacity:1;" d="M 17.136719 23.808594 C 17.136719 23.808594 18.554688 23.984375 18.652344 23.800781 C 18.75 23.617188 18.070312 23.3125 17.816406 23.300781 C 17.808594 22.675781 17.898438 20.773438 18.722656 19.742188 C 19.546875 18.710938 19.605469 17.960938 19.289062 17.332031 C 20.0625 16.957031 20.707031 16.722656 20.417969 15.84375 C 20.558594 15.414062 20.839844 14.453125 20.839844 14.453125 L 19.816406 14.90625 C 19.816406 14.90625 19.285156 14.578125 18.851562 14.757812 C 18.375 14.296875 18.226562 13.953125 18.289062 13.625 C 17.960938 13.964844 17.703125 14.492188 17.851562 15.28125 C 17.65625 15.492188 17.515625 15.910156 17.640625 16.261719 C 17.253906 16.957031 17.179688 17.339844 16.480469 17.679688 C 15.777344 18.023438 12.773438 18.726562 12.898438 22.609375 C 12.898438 22.609375 12.902344 22.640625 12.910156 22.695312 C 12.636719 22.785156 12.324219 22.804688 12.050781 22.742188 C 11.882812 22.707031 11.734375 22.644531 11.617188 22.554688 C 11.519531 22.476562 11.453125 22.378906 11.421875 22.257812 C 11.378906 22.050781 11.445312 21.765625 11.695312 21.402344 C 11.78125 21.277344 11.804688 21.246094 11.824219 21.210938 C 12.222656 20.640625 12.703125 19.953125 12.835938 19.132812 C 12.867188 18.945312 12.875 18.746094 12.859375 18.554688 C 12.832031 18.1875 12.726562 17.820312 12.519531 17.523438 C 12.304688 17.207031 11.984375 16.976562 11.554688 16.90625 C 11.429688 16.882812 11.292969 16.878906 11.152344 16.890625 C 10.976562 16.902344 10.804688 16.957031 10.652344 17.042969 C 10.4375 17.167969 10.253906 17.359375 10.132812 17.578125 C 10.007812 17.804688 9.945312 18.0625 9.960938 18.320312 C 9.972656 18.488281 10.023438 18.65625 10.109375 18.8125 C 10.195312 18.960938 10.386719 19.011719 10.535156 18.925781 C 10.683594 18.839844 10.738281 18.652344 10.652344 18.5 C 10.609375 18.429688 10.589844 18.351562 10.582031 18.273438 C 10.574219 18.140625 10.609375 18.003906 10.675781 17.882812 C 10.742188 17.757812 10.847656 17.652344 10.964844 17.585938 C 11.039062 17.546875 11.113281 17.515625 11.195312 17.511719 C 11.289062 17.503906 11.378906 17.507812 11.457031 17.519531 C 11.703125 17.5625 11.882812 17.695312 12.007812 17.875 C 12.148438 18.078125 12.222656 18.335938 12.238281 18.597656 C 12.253906 18.75 12.246094 18.898438 12.222656 19.039062 C 12.109375 19.71875 11.675781 20.339844 11.316406 20.859375 L 11.179688 21.054688 C 10.820312 21.578125 10.726562 22.03125 10.816406 22.402344 C 10.875 22.667969 11.023438 22.882812 11.230469 23.046875 C 11.421875 23.199219 11.660156 23.304688 11.917969 23.359375 C 12.289062 23.4375 12.710938 23.417969 13.085938 23.292969 C 13.171875 23.484375 13.292969 23.660156 13.457031 23.730469 C 13.894531 23.910156 16.800781 23.828125 16.800781 23.828125 C 16.800781 23.828125 16.902344 23.835938 16.828125 23.691406 C 16.753906 23.546875 16.398438 23.363281 16.238281 23.363281 C 16.519531 23.171875 16.839844 23.167969 16.953125 22.710938 C 17.070312 22.875 16.925781 23.496094 17.136719 23.808594 Z M 17.136719 23.808594 "/><g clip-rule="nonzero" clip-path="url(#b88a1fe1b1)"><path style=" stroke:none;fill-rule:evenodd;fill:#ffffff;fill-opacity:1;" d="M 23.445312 19.375 C 22.695312 23.273438 19.265625 26.214844 15.152344 26.214844 C 10.484375 26.214844 6.703125 22.429688 6.703125 17.769531 C 6.703125 14.59375 8.453125 11.832031 11.039062 10.386719 C 9.5625 11.804688 8.640625 13.800781 8.640625 16.007812 C 8.640625 20.304688 12.128906 23.792969 16.425781 23.792969 C 19.519531 23.792969 22.191406 21.988281 23.445312 19.375 Z M 23.445312 19.375 "/></g><path style=" stroke:none;fill-rule:evenodd;fill:#ffffff;fill-opacity:1;" d="M 13.925781 13.308594 C 13.152344 13.308594 12.519531 12.675781 12.519531 11.898438 C 12.519531 12.675781 11.882812 13.308594 11.109375 13.308594 C 11.882812 13.308594 12.519531 13.941406 12.519531 14.71875 C 12.519531 13.941406 13.152344 13.308594 13.925781 13.308594 Z M 13.925781 13.308594 "/><path style=" stroke:none;fill-rule:evenodd;fill:#ffffff;fill-opacity:1;" d="M 21.980469 19.277344 C 21.664062 19.277344 21.398438 19.015625 21.398438 18.695312 C 21.398438 19.011719 21.140625 19.277344 20.820312 19.277344 C 21.136719 19.277344 21.398438 19.535156 21.398438 19.855469 C 21.398438 19.539062 21.660156 19.277344 21.980469 19.277344 Z M 21.980469 19.277344 "/><path style=" stroke:none;fill-rule:evenodd;fill:#ffffff;fill-opacity:1;" d="M 22.121094 12.324219 C 21.558594 12.324219 21.097656 11.859375 21.097656 11.296875 C 21.097656 11.863281 20.632812 12.324219 20.070312 12.324219 C 20.636719 12.324219 21.097656 12.785156 21.097656 13.347656 C 21.097656 12.78125 21.558594 12.324219 22.121094 12.324219 Z M 22.121094 12.324219 "/><path style=" stroke:none;fill-rule:evenodd;fill:#ffffff;fill-opacity:1;" d="M 15.507812 16.429688 C 15.300781 16.429688 15.136719 16.257812 15.136719 16.054688 C 15.136719 16.261719 14.964844 16.429688 14.761719 16.429688 C 14.96875 16.429688 15.136719 16.601562 15.136719 16.804688 C 15.136719 16.597656 15.304688 16.429688 15.507812 16.429688 Z M 15.507812 16.429688 "/></g></svg>