<svg xmlns="http://www.w3.org/2000/svg" xmlns:xlink="http://www.w3.org/1999/xlink" width="175" zoomAndPan="magnify" viewBox="0 0 131.25 36.000001" height="48" preserveAspectRatio="xMidYMid meet" version="1.2"><defs/><g id="c8b80a889f"><g style="fill:#ffffff;fill-opacity:1;"><g transform="translate(4.259289, 22.256758)"><path style="stroke:none" d="M 0.390625 0 L 0.390625 -0.390625 L 3.828125 -0.390625 C 3.304688 -0.546875 2.925781 -0.820312 2.6875 -1.21875 C 2.445312 -1.613281 2.328125 -2.164062 2.328125 -2.875 L 2.328125 -9.15625 C 2.328125 -9.882812 2.285156 -10.394531 2.203125 -10.6875 C 2.128906 -10.976562 1.96875 -11.175781 1.71875 -11.28125 C 1.476562 -11.382812 1.035156 -11.46875 0.390625 -11.53125 L 0.390625 -11.859375 L 2.21875 -11.859375 C 2.695312 -11.859375 3.0625 -11.769531 3.3125 -11.59375 C 3.570312 -11.425781 3.753906 -11.132812 3.859375 -10.71875 C 3.972656 -10.3125 4.03125 -9.734375 4.03125 -8.984375 L 4.03125 -2.703125 C 4.03125 -1.992188 4.0625 -1.5 4.125 -1.21875 C 4.195312 -0.9375 4.351562 -0.738281 4.59375 -0.625 C 4.832031 -0.519531 5.257812 -0.441406 5.875 -0.390625 L 5.875 0 Z M 6.65625 -0.390625 C 7.53125 -0.441406 8.273438 -0.691406 8.890625 -1.140625 C 9.515625 -1.597656 9.984375 -2.222656 10.296875 -3.015625 C 10.617188 -3.816406 10.78125 -4.769531 10.78125 -5.875 C 10.78125 -7.1875 10.566406 -8.242188 10.140625 -9.046875 C 9.722656 -9.859375 9.066406 -10.457031 8.171875 -10.84375 C 7.285156 -11.226562 6.140625 -11.421875 4.734375 -11.421875 L 4.4375 -11.421875 C 4.332031 -11.609375 4.179688 -11.753906 3.984375 -11.859375 L 4.734375 -11.859375 C 10.035156 -11.859375 12.6875 -9.863281 12.6875 -5.875 C 12.6875 -4.726562 12.425781 -3.707031 11.90625 -2.8125 C 11.382812 -1.925781 10.664062 -1.234375 9.75 -0.734375 C 8.84375 -0.242188 7.8125 0 6.65625 0 Z M 6.65625 -0.390625 "/></g></g><g style="fill:#ffffff;fill-opacity:1;"><g transform="translate(17.914474, 22.256758)"><path style="stroke:none" d="M 4.421875 0.3125 C 3.648438 0.226562 2.972656 -0.0195312 2.390625 -0.4375 C 1.816406 -0.851562 1.367188 -1.398438 1.046875 -2.078125 C 0.734375 -2.765625 0.578125 -3.507812 0.578125 -4.3125 C 0.578125 -5.125 0.738281 -5.859375 1.0625 -6.515625 C 1.394531 -7.179688 1.851562 -7.71875 2.4375 -8.125 C 3.03125 -8.539062 3.722656 -8.789062 4.515625 -8.875 L 4.515625 -8.484375 C 3.835938 -8.316406 3.316406 -7.863281 2.953125 -7.125 C 2.585938 -6.394531 2.40625 -5.457031 2.40625 -4.3125 C 2.40625 -3.164062 2.582031 -2.210938 2.9375 -1.453125 C 3.289062 -0.691406 3.785156 -0.234375 4.421875 -0.078125 Z M 3.1875 -4.4375 L 3.1875 -4.828125 L 7 -4.828125 C 7 -5.941406 6.851562 -6.804688 6.5625 -7.421875 C 6.28125 -8.035156 5.859375 -8.390625 5.296875 -8.484375 L 5.296875 -8.875 C 6.003906 -8.820312 6.617188 -8.609375 7.140625 -8.234375 C 7.671875 -7.859375 8.078125 -7.34375 8.359375 -6.6875 C 8.648438 -6.039062 8.796875 -5.289062 8.796875 -4.4375 Z M 5.1875 -0.078125 C 6.082031 -0.140625 6.796875 -0.394531 7.328125 -0.84375 C 7.859375 -1.289062 8.21875 -1.859375 8.40625 -2.546875 L 8.796875 -2.546875 C 8.597656 -1.734375 8.203125 -1.070312 7.609375 -0.5625 C 7.015625 -0.0625 6.207031 0.226562 5.1875 0.3125 Z M 5.1875 -0.078125 "/></g></g><g style="fill:#ffffff;fill-opacity:1;"><g transform="translate(27.192974, 22.256758)"><path style="stroke:none" d="M 2.625 -10.953125 C 2.3125 -10.953125 2.046875 -11.0625 1.828125 -11.28125 C 1.609375 -11.5 1.5 -11.765625 1.5 -12.078125 C 1.5 -12.378906 1.609375 -12.640625 1.828125 -12.859375 C 2.046875 -13.078125 2.3125 -13.1875 2.625 -13.1875 C 2.820312 -13.1875 3.003906 -13.132812 3.171875 -13.03125 C 3.347656 -12.925781 3.488281 -12.789062 3.59375 -12.625 C 3.695312 -12.457031 3.75 -12.273438 3.75 -12.078125 C 3.75 -11.867188 3.695312 -11.679688 3.59375 -11.515625 C 3.488281 -11.347656 3.347656 -11.210938 3.171875 -11.109375 C 3.003906 -11.003906 2.820312 -10.953125 2.625 -10.953125 Z M 0.296875 0 L 0.296875 -0.328125 L 3.34375 -0.328125 C 2.34375 -0.628906 1.84375 -1.445312 1.84375 -2.78125 L 1.84375 -6.25 C 1.84375 -6.863281 1.804688 -7.300781 1.734375 -7.5625 C 1.671875 -7.820312 1.535156 -7.988281 1.328125 -8.0625 C 1.128906 -8.144531 0.785156 -8.203125 0.296875 -8.234375 L 0.296875 -8.5625 L 3.5 -8.5625 L 3.5 -2.3125 C 3.5 -1.707031 3.523438 -1.273438 3.578125 -1.015625 C 3.640625 -0.753906 3.757812 -0.582031 3.9375 -0.5 C 4.125 -0.414062 4.4375 -0.359375 4.875 -0.328125 L 4.875 0 Z M 0.296875 0 "/></g></g><g style="fill:#ffffff;fill-opacity:1;"><g transform="translate(32.269893, 22.256758)"><path style="stroke:none" d="M 5.859375 0 L 5.859375 -0.328125 L 8.71875 -0.328125 C 8.21875 -0.472656 7.84375 -0.753906 7.59375 -1.171875 C 7.34375 -1.585938 7.21875 -2.125 7.21875 -2.78125 L 7.21875 -6.21875 C 7.21875 -6.664062 7.179688 -7.015625 7.109375 -7.265625 C 7.035156 -7.515625 6.925781 -7.691406 6.78125 -7.796875 C 6.632812 -7.898438 6.441406 -7.953125 6.203125 -7.953125 C 5.929688 -7.953125 5.625 -7.867188 5.28125 -7.703125 C 4.945312 -7.546875 4.671875 -7.382812 4.453125 -7.21875 L 4.234375 -7.53125 C 4.648438 -7.925781 5.09375 -8.25 5.5625 -8.5 C 6.03125 -8.75 6.484375 -8.875 6.921875 -8.875 C 7.566406 -8.875 8.050781 -8.671875 8.375 -8.265625 C 8.707031 -7.867188 8.875 -7.253906 8.875 -6.421875 L 8.875 -2.3125 C 8.875 -1.707031 8.90625 -1.273438 8.96875 -1.015625 C 9.03125 -0.753906 9.164062 -0.582031 9.375 -0.5 C 9.582031 -0.414062 9.929688 -0.359375 10.421875 -0.328125 L 10.421875 0 Z M 11.40625 0 L 11.40625 -0.328125 L 14.078125 -0.328125 C 13.585938 -0.472656 13.21875 -0.753906 12.96875 -1.171875 C 12.71875 -1.585938 12.59375 -2.125 12.59375 -2.78125 L 12.59375 -6.21875 C 12.59375 -6.664062 12.554688 -7.015625 12.484375 -7.265625 C 12.410156 -7.515625 12.296875 -7.691406 12.140625 -7.796875 C 11.992188 -7.898438 11.804688 -7.953125 11.578125 -7.953125 C 11.304688 -7.953125 11 -7.867188 10.65625 -7.703125 C 10.320312 -7.546875 10.046875 -7.382812 9.828125 -7.21875 L 9.609375 -7.53125 C 10.023438 -7.925781 10.46875 -8.25 10.9375 -8.5 C 11.40625 -8.75 11.859375 -8.875 12.296875 -8.875 C 12.941406 -8.875 13.425781 -8.671875 13.75 -8.265625 C 14.070312 -7.867188 14.234375 -7.253906 14.234375 -6.421875 L 14.234375 -2.3125 C 14.234375 -1.707031 14.265625 -1.273438 14.328125 -1.015625 C 14.398438 -0.753906 14.539062 -0.582031 14.75 -0.5 C 14.957031 -0.414062 15.304688 -0.359375 15.796875 -0.328125 L 15.796875 0 Z M 0.296875 0 L 0.296875 -0.328125 L 3.34375 -0.328125 C 2.851562 -0.472656 2.476562 -0.753906 2.21875 -1.171875 C 1.96875 -1.585938 1.84375 -2.125 1.84375 -2.78125 L 1.84375 -6.25 C 1.84375 -6.863281 1.8125 -7.296875 1.75 -7.546875 C 1.6875 -7.804688 1.550781 -7.976562 1.34375 -8.0625 C 1.144531 -8.144531 0.796875 -8.203125 0.296875 -8.234375 L 0.296875 -8.5625 L 3.5 -8.5625 L 3.5 -2.3125 C 3.5 -1.707031 3.523438 -1.273438 3.578125 -1.015625 C 3.640625 -0.753906 3.757812 -0.582031 3.9375 -0.5 C 4.125 -0.414062 4.4375 -0.359375 4.875 -0.328125 L 4.875 0 Z M 0.296875 0 "/></g></g><g style="fill:#ffffff;fill-opacity:1;"><g transform="translate(48.064718, 22.256758)"><path style="stroke:none" d="M 4.8125 0.3125 C 3.96875 0.226562 3.226562 -0.0195312 2.59375 -0.4375 C 1.957031 -0.851562 1.460938 -1.398438 1.109375 -2.078125 C 0.753906 -2.765625 0.578125 -3.507812 0.578125 -4.3125 C 0.578125 -5.125 0.75 -5.859375 1.09375 -6.515625 C 1.4375 -7.179688 1.929688 -7.71875 2.578125 -8.125 C 3.222656 -8.539062 3.96875 -8.789062 4.8125 -8.875 L 4.8125 -8.5 C 4.039062 -8.332031 3.445312 -7.878906 3.03125 -7.140625 C 2.613281 -6.398438 2.40625 -5.457031 2.40625 -4.3125 C 2.40625 -3.164062 2.613281 -2.210938 3.03125 -1.453125 C 3.445312 -0.691406 4.039062 -0.234375 4.8125 -0.078125 Z M 5.578125 -0.078125 C 6.078125 -0.179688 6.503906 -0.421875 6.859375 -0.796875 C 7.210938 -1.179688 7.484375 -1.675781 7.671875 -2.28125 C 7.859375 -2.882812 7.953125 -3.5625 7.953125 -4.3125 C 7.953125 -5.457031 7.75 -6.398438 7.34375 -7.140625 C 6.9375 -7.878906 6.347656 -8.332031 5.578125 -8.5 L 5.578125 -8.875 C 6.421875 -8.789062 7.160156 -8.539062 7.796875 -8.125 C 8.429688 -7.71875 8.921875 -7.179688 9.265625 -6.515625 C 9.609375 -5.859375 9.78125 -5.125 9.78125 -4.3125 C 9.78125 -3.507812 9.601562 -2.765625 9.25 -2.078125 C 8.90625 -1.398438 8.414062 -0.851562 7.78125 -0.4375 C 7.144531 -0.0195312 6.410156 0.226562 5.578125 0.3125 Z M 5.578125 -0.078125 "/></g></g><g style="fill:#ffffff;fill-opacity:1;"><g transform="translate(58.432523, 22.256758)"><path style="stroke:none" d="M 3.953125 -0.03125 C 4.429688 -0.0703125 4.816406 -0.242188 5.109375 -0.546875 C 5.398438 -0.859375 5.546875 -1.234375 5.546875 -1.671875 C 5.546875 -1.972656 5.4375 -2.234375 5.21875 -2.453125 C 5.007812 -2.679688 4.675781 -2.898438 4.21875 -3.109375 L 2.5625 -3.859375 C 1.925781 -4.140625 1.4375 -4.503906 1.09375 -4.953125 C 0.75 -5.410156 0.578125 -5.925781 0.578125 -6.5 C 0.578125 -7.144531 0.8125 -7.679688 1.28125 -8.109375 C 1.75 -8.535156 2.378906 -8.789062 3.171875 -8.875 L 3.171875 -8.515625 C 2.316406 -8.390625 1.890625 -7.914062 1.890625 -7.09375 C 1.890625 -6.445312 2.300781 -5.929688 3.125 -5.546875 L 5.09375 -4.65625 C 5.6875 -4.375 6.128906 -4.039062 6.421875 -3.65625 C 6.710938 -3.269531 6.859375 -2.8125 6.859375 -2.28125 C 6.859375 -1.519531 6.597656 -0.910156 6.078125 -0.453125 C 5.566406 0.00390625 4.859375 0.257812 3.953125 0.3125 Z M 5.734375 -6.671875 C 5.410156 -6.671875 5.160156 -6.789062 4.984375 -7.03125 C 4.816406 -7.28125 4.734375 -7.628906 4.734375 -8.078125 L 4.734375 -8.765625 C 5.335938 -8.703125 5.78125 -8.5625 6.0625 -8.34375 C 6.351562 -8.132812 6.5 -7.84375 6.5 -7.46875 C 6.5 -7.238281 6.425781 -7.046875 6.28125 -6.890625 C 6.132812 -6.742188 5.953125 -6.671875 5.734375 -6.671875 Z M 2.25 0.1875 C 1.644531 0.125 1.195312 -0.0078125 0.90625 -0.21875 C 0.625 -0.4375 0.484375 -0.734375 0.484375 -1.109375 C 0.484375 -1.335938 0.554688 -1.523438 0.703125 -1.671875 C 0.847656 -1.828125 1.03125 -1.90625 1.25 -1.90625 C 1.570312 -1.90625 1.816406 -1.78125 1.984375 -1.53125 C 2.160156 -1.289062 2.25 -0.945312 2.25 -0.5 Z M 2.25 0.1875 "/></g></g><g style="fill:#ffffff;fill-opacity:1;"><g transform="translate(65.785294, 22.256758)"><path style="stroke:none" d=""/></g></g><g style="fill:#ffffff;fill-opacity:1;"><g transform="translate(70.453722, 22.256758)"><path style="stroke:none" d="M 6.4375 0.3125 C 5.320312 0.300781 4.332031 0.0195312 3.46875 -0.53125 C 2.601562 -1.082031 1.9375 -1.832031 1.46875 -2.78125 C 1.007812 -3.726562 0.78125 -4.789062 0.78125 -5.96875 C 0.78125 -7.15625 1.007812 -8.210938 1.46875 -9.140625 C 1.9375 -10.078125 2.597656 -10.8125 3.453125 -11.34375 C 4.316406 -11.882812 5.3125 -12.160156 6.4375 -12.171875 L 6.4375 -11.78125 C 5.632812 -11.71875 4.953125 -11.441406 4.390625 -10.953125 C 3.828125 -10.460938 3.398438 -9.789062 3.109375 -8.9375 C 2.828125 -8.09375 2.6875 -7.101562 2.6875 -5.96875 C 2.6875 -4.84375 2.832031 -3.84375 3.125 -2.96875 C 3.414062 -2.101562 3.84375 -1.421875 4.40625 -0.921875 C 4.96875 -0.421875 5.644531 -0.140625 6.4375 -0.078125 Z M 11.0625 -8.34375 C 10.738281 -9.46875 10.269531 -10.296875 9.65625 -10.828125 C 9.039062 -11.367188 8.226562 -11.6875 7.21875 -11.78125 L 7.21875 -12.171875 C 7.59375 -12.160156 7.9375 -12.128906 8.25 -12.078125 C 8.5625 -12.023438 8.832031 -11.96875 9.0625 -11.90625 C 9.300781 -11.851562 9.457031 -11.820312 9.53125 -11.8125 C 9.695312 -11.757812 9.851562 -11.71875 10 -11.6875 C 10.15625 -11.65625 10.28125 -11.640625 10.375 -11.640625 C 10.5625 -11.640625 10.707031 -11.679688 10.8125 -11.765625 C 10.914062 -11.859375 11 -11.988281 11.0625 -12.15625 L 11.375 -12.15625 L 11.375 -8.34375 Z M 7.21875 -0.078125 C 8.226562 -0.179688 9.039062 -0.5 9.65625 -1.03125 C 10.269531 -1.5625 10.738281 -2.390625 11.0625 -3.515625 L 11.375 -3.515625 L 11.375 0.296875 L 11.0625 0.296875 C 11 0.117188 10.921875 -0.0078125 10.828125 -0.09375 C 10.734375 -0.1875 10.582031 -0.234375 10.375 -0.234375 C 10.28125 -0.234375 10.15625 -0.21875 10 -0.1875 C 9.851562 -0.15625 9.695312 -0.113281 9.53125 -0.0625 C 9.457031 -0.0390625 9.28125 0 9 0.0625 C 8.71875 0.132812 8.425781 0.191406 8.125 0.234375 C 7.820312 0.285156 7.519531 0.3125 7.21875 0.3125 Z M 7.21875 -0.078125 "/></g></g><g style="fill:#ffffff;fill-opacity:1;"><g transform="translate(82.902898, 22.256758)"><path style="stroke:none" d="M 2.625 -10.953125 C 2.3125 -10.953125 2.046875 -11.0625 1.828125 -11.28125 C 1.609375 -11.5 1.5 -11.765625 1.5 -12.078125 C 1.5 -12.378906 1.609375 -12.640625 1.828125 -12.859375 C 2.046875 -13.078125 2.3125 -13.1875 2.625 -13.1875 C 2.820312 -13.1875 3.003906 -13.132812 3.171875 -13.03125 C 3.347656 -12.925781 3.488281 -12.789062 3.59375 -12.625 C 3.695312 -12.457031 3.75 -12.273438 3.75 -12.078125 C 3.75 -11.867188 3.695312 -11.679688 3.59375 -11.515625 C 3.488281 -11.347656 3.347656 -11.210938 3.171875 -11.109375 C 3.003906 -11.003906 2.820312 -10.953125 2.625 -10.953125 Z M 0.296875 0 L 0.296875 -0.328125 L 3.34375 -0.328125 C 2.34375 -0.628906 1.84375 -1.445312 1.84375 -2.78125 L 1.84375 -6.25 C 1.84375 -6.863281 1.804688 -7.300781 1.734375 -7.5625 C 1.671875 -7.820312 1.535156 -7.988281 1.328125 -8.0625 C 1.128906 -8.144531 0.785156 -8.203125 0.296875 -8.234375 L 0.296875 -8.5625 L 3.5 -8.5625 L 3.5 -2.3125 C 3.5 -1.707031 3.523438 -1.273438 3.578125 -1.015625 C 3.640625 -0.753906 3.757812 -0.582031 3.9375 -0.5 C 4.125 -0.414062 4.4375 -0.359375 4.875 -0.328125 L 4.875 0 Z M 0.296875 0 "/></g></g><g style="fill:#ffffff;fill-opacity:1;"><g transform="translate(87.785271, 22.256758)"><path style="stroke:none" d="M 6.046875 0.3125 C 5.753906 0.3125 5.453125 0.269531 5.140625 0.1875 C 4.828125 0.101562 4.539062 -0.0078125 4.28125 -0.15625 L 4.4375 -0.484375 C 4.65625 -0.390625 4.890625 -0.3125 5.140625 -0.25 C 5.398438 -0.195312 5.617188 -0.171875 5.796875 -0.171875 C 6.628906 -0.171875 7.242188 -0.503906 7.640625 -1.171875 C 8.035156 -1.835938 8.234375 -2.875 8.234375 -4.28125 C 8.234375 -5.65625 8.046875 -6.671875 7.671875 -7.328125 C 7.304688 -7.992188 6.742188 -8.328125 5.984375 -8.328125 C 5.710938 -8.328125 5.453125 -8.273438 5.203125 -8.171875 C 4.953125 -8.078125 4.722656 -7.941406 4.515625 -7.765625 L 4.28125 -8.015625 C 4.53125 -8.285156 4.835938 -8.492188 5.203125 -8.640625 C 5.578125 -8.796875 5.960938 -8.875 6.359375 -8.875 C 7.109375 -8.875 7.757812 -8.6875 8.3125 -8.3125 C 8.863281 -7.945312 9.289062 -7.414062 9.59375 -6.71875 C 9.90625 -6.03125 10.0625 -5.21875 10.0625 -4.28125 C 10.0625 -3.394531 9.890625 -2.601562 9.546875 -1.90625 C 9.203125 -1.21875 8.722656 -0.675781 8.109375 -0.28125 C 7.503906 0.113281 6.816406 0.3125 6.046875 0.3125 Z M 0.296875 3.703125 L 0.296875 3.359375 L 3.34375 3.359375 C 2.851562 3.222656 2.476562 2.945312 2.21875 2.53125 C 1.96875 2.113281 1.84375 1.578125 1.84375 0.921875 L 1.84375 -6.25 C 1.84375 -6.863281 1.8125 -7.296875 1.75 -7.546875 C 1.6875 -7.804688 1.550781 -7.976562 1.34375 -8.0625 C 1.144531 -8.144531 0.796875 -8.203125 0.296875 -8.234375 L 0.296875 -8.5625 L 3.5 -8.5625 L 3.5 1.328125 C 3.5 1.929688 3.539062 2.363281 3.625 2.625 C 3.707031 2.882812 3.875 3.054688 4.125 3.140625 C 4.382812 3.222656 4.828125 3.28125 5.453125 3.3125 L 5.453125 3.703125 Z M 0.296875 3.703125 "/></g></g><g style="fill:#ffffff;fill-opacity:1;"><g transform="translate(98.230852, 22.256758)"><path style="stroke:none" d="M 0.1875 0 L 0.1875 -0.328125 L 3.25 -0.328125 C 2.25 -0.628906 1.75 -1.445312 1.75 -2.78125 L 1.75 -10.140625 C 1.75 -10.753906 1.710938 -11.191406 1.640625 -11.453125 C 1.566406 -11.710938 1.429688 -11.878906 1.234375 -11.953125 C 1.035156 -12.035156 0.6875 -12.09375 0.1875 -12.125 L 0.1875 -12.453125 L 3.40625 -12.453125 L 3.40625 -2.3125 C 3.40625 -1.6875 3.4375 -1.25 3.5 -1 C 3.5625 -0.75 3.695312 -0.582031 3.90625 -0.5 C 4.113281 -0.414062 4.460938 -0.359375 4.953125 -0.328125 L 4.953125 0 Z M 6.125 0 L 6.125 -0.328125 L 9 -0.328125 C 8.507812 -0.472656 8.140625 -0.753906 7.890625 -1.171875 C 7.640625 -1.585938 7.515625 -2.125 7.515625 -2.78125 L 7.515625 -6.21875 C 7.515625 -6.675781 7.46875 -7.023438 7.375 -7.265625 C 7.289062 -7.515625 7.160156 -7.691406 6.984375 -7.796875 C 6.816406 -7.898438 6.585938 -7.953125 6.296875 -7.953125 C 5.984375 -7.953125 5.625 -7.867188 5.21875 -7.703125 C 4.820312 -7.535156 4.535156 -7.375 4.359375 -7.21875 L 4.140625 -7.53125 C 4.515625 -7.914062 4.960938 -8.234375 5.484375 -8.484375 C 6.015625 -8.742188 6.523438 -8.875 7.015625 -8.875 C 7.734375 -8.875 8.269531 -8.671875 8.625 -8.265625 C 8.976562 -7.867188 9.15625 -7.253906 9.15625 -6.421875 L 9.15625 -2.3125 C 9.15625 -1.707031 9.1875 -1.273438 9.25 -1.015625 C 9.320312 -0.753906 9.460938 -0.582031 9.671875 -0.5 C 9.878906 -0.414062 10.226562 -0.359375 10.71875 -0.328125 L 10.71875 0 Z M 6.125 0 "/></g></g><g style="fill:#ffffff;fill-opacity:1;"><g transform="translate(108.948758, 22.256758)"><path style="stroke:none" d="M 4.421875 0.3125 C 3.648438 0.226562 2.972656 -0.0195312 2.390625 -0.4375 C 1.816406 -0.851562 1.367188 -1.398438 1.046875 -2.078125 C 0.734375 -2.765625 0.578125 -3.507812 0.578125 -4.3125 C 0.578125 -5.125 0.738281 -5.859375 1.0625 -6.515625 C 1.394531 -7.179688 1.851562 -7.71875 2.4375 -8.125 C 3.03125 -8.539062 3.722656 -8.789062 4.515625 -8.875 L 4.515625 -8.484375 C 3.835938 -8.316406 3.316406 -7.863281 2.953125 -7.125 C 2.585938 -6.394531 2.40625 -5.457031 2.40625 -4.3125 C 2.40625 -3.164062 2.582031 -2.210938 2.9375 -1.453125 C 3.289062 -0.691406 3.785156 -0.234375 4.421875 -0.078125 Z M 3.1875 -4.4375 L 3.1875 -4.828125 L 7 -4.828125 C 7 -5.941406 6.851562 -6.804688 6.5625 -7.421875 C 6.28125 -8.035156 5.859375 -8.390625 5.296875 -8.484375 L 5.296875 -8.875 C 6.003906 -8.820312 6.617188 -8.609375 7.140625 -8.234375 C 7.671875 -7.859375 8.078125 -7.34375 8.359375 -6.6875 C 8.648438 -6.039062 8.796875 -5.289062 8.796875 -4.4375 Z M 5.1875 -0.078125 C 6.082031 -0.140625 6.796875 -0.394531 7.328125 -0.84375 C 7.859375 -1.289062 8.21875 -1.859375 8.40625 -2.546875 L 8.796875 -2.546875 C 8.597656 -1.734375 8.203125 -1.070312 7.609375 -0.5625 C 7.015625 -0.0625 6.207031 0.226562 5.1875 0.3125 Z M 5.1875 -0.078125 "/></g></g><g style="fill:#ffffff;fill-opacity:1;"><g transform="translate(118.227257, 22.256758)"><path style="stroke:none" d="M 5 -6.609375 C 5 -7.035156 5.0625 -7.421875 5.1875 -7.765625 C 5.320312 -8.109375 5.503906 -8.378906 5.734375 -8.578125 C 5.972656 -8.773438 6.234375 -8.875 6.515625 -8.875 C 6.816406 -8.875 7.0625 -8.78125 7.25 -8.59375 C 7.4375 -8.414062 7.53125 -8.179688 7.53125 -7.890625 C 7.53125 -7.492188 7.375 -7.179688 7.0625 -6.953125 C 6.75 -6.722656 6.304688 -6.609375 5.734375 -6.609375 Z M 0.296875 0 L 0.296875 -0.328125 L 3.34375 -0.328125 C 2.851562 -0.472656 2.476562 -0.753906 2.21875 -1.171875 C 1.96875 -1.585938 1.84375 -2.125 1.84375 -2.78125 L 1.84375 -6.25 C 1.84375 -6.863281 1.8125 -7.296875 1.75 -7.546875 C 1.6875 -7.804688 1.550781 -7.976562 1.34375 -8.0625 C 1.144531 -8.144531 0.796875 -8.203125 0.296875 -8.234375 L 0.296875 -8.5625 L 3.5 -8.5625 L 3.5 -2.3125 C 3.5 -1.707031 3.539062 -1.273438 3.625 -1.015625 C 3.707031 -0.753906 3.878906 -0.582031 4.140625 -0.5 C 4.398438 -0.414062 4.84375 -0.359375 5.46875 -0.328125 L 5.46875 0 Z M 0.296875 0 "/></g></g></g></svg>